# xmcd
#
# Track frame offsets: 
#        150
#        18593
#        37046
#        53974
#        69601
#        86692
#        99771
#        121111
#        138552
#        155210
#
# Disc length: 2270 seconds
#
# Revision: 1
# Processed by: cddbd v1.5.2PL0 Copyright (c) Steve Scherf et al.
# Submitted via: ExactAudioCopy v1.0b3
#
DISCID=8708dc0a
DTITLE=Dean Brody - Gypsy Road
DYEAR=2015
DGENRE=Country
TTITLE0=Upside Down
TTITLE1=Hillbilly
TTITLE2=Monterey
TTITLE3=Bring Down the House
TTITLE4=Sweet Lola
TTITLE5=Love Would Be Enough
TTITLE6=Footprints of a Giant
TTITLE7=Castaways
TTITLE8=Everything's Better
TTITLE9=Like I Know This Town
EXTD=
EXTT0=
EXTT1=
EXTT2=
EXTT3=
EXTT4=
EXTT5=
EXTT6=
EXTT7=
EXTT8=
EXTT9=
PLAYORDER=
